<svg width="16" height="16" viewBox="0 0 16 16" fill="none" xmlns="http://www.w3.org/2000/svg">
<path d="M12.4316 3.17866C11.5919 3.57442 10.4376 4.04108 9.65455 4.04108C8.29276 4.04108 7.45785 3.19186 5.72967 3.19186C4.88989 3.19186 4.39057 3.2875 4.09714 3.38644C4.16036 3.22813 4.19603 3.05334 4.19603 2.87195C4.19441 2.11342 3.59133 1.5 2.8472 1.5C2.10308 1.5 1.5 2.11342 1.5 2.8703C1.5 3.34191 1.73507 3.75746 2.09011 4.0048V13.653C2.09011 14.0784 2.42894 14.4231 2.8472 14.4231C3.26547 14.4231 3.6043 14.0784 3.6043 13.653V11.4368C4.102 11.1482 4.89476 10.8151 5.90151 10.8151C7.67509 10.8151 8.93475 11.7237 10.5705 11.7237C11.7799 11.7237 12.8013 10.9289 13.252 10.515C13.4092 10.3699 13.5 10.1654 13.5 9.94939V3.87289C13.5 3.31388 12.9293 2.94286 12.4316 3.17866Z" fill="#555555"/>
</svg>
