<svg xmlns="http://www.w3.org/2000/svg" width="16" height="16" viewBox="0 0 16 16">
  <g id="그룹_1073" data-name="그룹 1073" transform="translate(-592 -269)">
    <rect id="사각형_1129" data-name="사각형 1129" width="16" height="16" transform="translate(592 269)" fill="none" opacity="0.4"/>
    <path id="reject-icon__color" data-name="패스 97" d="M600,270a7,7,0,1,0,7,7A7,7,0,0,0,600,270Zm-5,7a4.992,4.992,0,0,1,7.753-4.167l-6.92,6.92A4.969,4.969,0,0,1,595,277Zm5,5a4.968,4.968,0,0,1-2.753-.833l6.92-6.92A4.992,4.992,0,0,1,600,282Z" fill="#8b8b8b"/>
  </g>
</svg>
