<svg width="164" height="28" viewBox="0 0 164 28" fill="none" xmlns="http://www.w3.org/2000/svg">
<path d="M25.5192 15.7269C25.9755 15.264 25.9755 14.5168 25.5192 14.0539L21.8689 10.4036C21.406 9.94727 20.6587 9.94727 20.1958 10.4036L19.8652 10.7342C20.1694 10.8466 20.4405 11.0252 20.6719 11.25C21.5911 12.1361 21.6176 13.6042 20.7315 14.5234C19.8453 15.4426 18.3773 15.469 17.4581 14.5829C17.4382 14.5631 17.4184 14.5432 17.3985 14.5234C17.1671 14.2986 16.9952 14.0208 16.8761 13.7166C16.2413 14.3845 16.2545 15.436 16.9026 16.084L17.9077 17.0892L17.1076 17.1355C16.2347 17.1818 15.5602 17.929 15.6065 18.8019C15.6263 19.1921 15.7916 19.569 16.0694 19.8468C16.6976 20.4486 17.6895 20.4486 18.3244 19.8468C18.6021 19.569 18.7608 19.1987 18.7806 18.8086L18.8269 18.0084L19.8321 19.0136C20.4934 19.6748 21.5713 19.6748 22.2326 19.0136L25.5192 15.7269Z" fill="#F8F8F8"/>
<path d="M19.6932 19.8865L19.3626 19.5558C19.2502 19.86 19.0716 20.1311 18.8402 20.3626C17.9276 21.2355 16.486 21.2355 15.5668 20.3626C14.6608 19.4632 14.6608 18.0084 15.5536 17.1024C15.785 16.871 16.0627 16.6858 16.3736 16.5734C15.7056 15.9386 14.6542 15.9518 14.0061 16.6065L13.001 17.6116L12.9547 16.8048C12.9084 15.9253 12.1545 15.2574 11.275 15.3037C10.3955 15.35 9.72758 16.1039 9.77387 16.9834C9.79371 17.3736 9.95904 17.7439 10.2368 18.0216C10.5145 18.2994 10.8848 18.4581 11.275 18.4779L12.0752 18.5242L11.0832 19.5161C10.4219 20.1774 10.4219 21.2553 11.0832 21.9166L14.3698 25.2032C14.8327 25.6595 15.58 25.6595 16.0429 25.2032L19.6932 21.5529C20.1495 21.09 20.1495 20.3494 19.6932 19.8865Z" fill="#FAB005"/>
<path d="M14.3302 9.92743C13.7152 9.30582 12.71 9.29921 12.0884 9.91421C11.804 10.192 11.6387 10.5689 11.6189 10.9657L11.5726 11.7658L10.5674 10.7607C9.90613 10.0994 8.83484 10.0994 8.16694 10.7607L4.88033 14.0473C4.41742 14.5102 4.41742 15.2574 4.88033 15.7203L8.53065 19.3707C8.99355 19.827 9.74081 19.827 10.2037 19.3707L10.5344 19.04C10.2302 18.9276 9.95904 18.749 9.72758 18.5176C8.80839 17.6315 8.78194 16.1634 9.66807 15.2442C10.5542 14.325 12.0223 14.2986 12.9415 15.1847C12.9613 15.2045 12.9811 15.2244 13.001 15.2442C13.206 15.4492 13.3713 15.7005 13.4903 15.9716C13.9797 15.1053 13.8342 14.0208 13.1266 13.3199L12.4852 12.6784L13.2853 12.6321C14.1582 12.5924 14.8327 11.8452 14.7931 10.9723C14.7798 10.5821 14.6145 10.2052 14.3302 9.92743Z" fill="#F8F8F8"/>
<path d="M20.1628 11.7658C19.885 11.4881 19.5147 11.3294 19.1245 11.3095L18.3178 11.2632L19.3295 10.2581C19.9908 9.59678 19.9908 8.51888 19.3295 7.85759L16.0429 4.57098C15.58 4.11469 14.8328 4.11469 14.3698 4.57098L10.7261 8.2213C10.2632 8.6842 10.2632 9.43146 10.7261 9.89436L11.0568 10.225C11.1692 9.92082 11.3478 9.64969 11.5726 9.41824C12.4786 8.51227 13.94 8.51227 14.846 9.41824C15.7519 10.3242 15.7519 11.7857 14.846 12.6916C14.6211 12.9231 14.3434 13.095 14.0392 13.214C14.7071 13.8489 15.7586 13.8357 16.4066 13.1876L17.4118 12.1824L17.4581 12.9892C17.5044 13.8687 18.2582 14.5366 19.1311 14.4903C20.0107 14.444 20.6786 13.6902 20.6323 12.8173C20.6124 12.4139 20.4471 12.0436 20.1628 11.7658Z" fill="#FAB005"/>
<path d="M38.0242 9.31902V11.9972H42.9244V15.9187H38.0242V21.1098H33.329V5.23886H43.579V9.31902H38.0242Z" fill="#F8F8F8"/>
<path d="M44.4123 6.39613C44.4123 5.21903 45.3645 4.26016 46.5416 4.26016C47.7187 4.26016 48.6776 5.21242 48.6776 6.38952C48.6776 7.56661 47.7253 8.52549 46.5482 8.52549C45.3711 8.52549 44.4189 7.57984 44.4189 6.40274C44.4123 6.40274 44.4123 6.39613 44.4123 6.39613ZM45.6952 9.61661H47.3881C48.0494 9.61661 48.585 10.1523 48.585 10.8135V21.1165H44.5048V10.8069C44.5048 10.1523 45.0339 9.61661 45.6952 9.61661Z" fill="#FAB005"/>
<path d="M69.5413 15.3765C69.5413 18.3919 67.7756 21.4074 64.2113 21.4074C63.0739 21.4736 61.9629 21.0239 61.1958 20.184V25.4876H57.1156V9.61662H61.1958V10.5424C61.9761 9.71581 63.0805 9.27936 64.2113 9.33888C67.769 9.34549 69.5413 12.361 69.5413 15.3765ZM65.4413 15.3765C65.4479 14.2456 64.5353 13.3198 63.3979 13.3132C62.2671 13.3066 61.3413 14.2192 61.3347 15.3566C61.3281 16.4874 62.2406 17.4066 63.3715 17.4198C64.4494 17.4794 65.3685 16.6594 65.4347 15.5815C65.4347 15.5087 65.4347 15.4426 65.4413 15.3765Z" fill="#F8F8F8"/>
<path d="M74.6465 5.23886V21.1164H70.5663V5.23886H74.6465Z" fill="#F8F8F8"/>
<path d="M87.3498 13.2802L80.5253 17.3802C81.3585 18.1737 82.6414 18.2531 83.5673 17.5719C84.2682 17.1553 84.7576 16.461 84.9097 15.6608L88.1037 15.6542C88.0243 17.605 86.92 19.3707 85.194 20.2965C81.8611 22.2869 78.3563 21.5529 76.5245 18.4713C74.7919 15.6807 75.645 12.0171 78.429 10.2779C78.4952 10.2382 78.5679 10.1919 78.634 10.1523C81.5635 8.41308 85.4123 9.02146 87.3498 13.2802ZM82.9985 13.2934C82.3373 12.4668 81.1469 12.2882 80.274 12.89C79.4011 13.4323 79.0308 14.5168 79.3879 15.4757L82.9985 13.2934Z" fill="#F8F8F8"/>
<path d="M159.464 19.1855C159.464 20.4155 158.465 21.4074 157.242 21.4074C156.012 21.4074 155.02 20.4089 155.02 19.1855C155.02 17.9555 156.012 16.9636 157.242 16.9636C158.465 16.9636 159.457 17.9621 159.464 19.1855Z" fill="#F8F8F8"/>
<path d="M56.0708 13.062V9.61002H53.8026V7.20953H49.7224V16.4874C49.7224 18.7358 50.6945 21.3413 54.2787 21.3413C54.8871 21.3744 55.4889 21.295 56.0708 21.1165V17.6645C55.8394 17.7042 55.6013 17.7307 55.3698 17.7307C54.5829 17.81 53.8819 17.2413 53.796 16.4544C53.7827 16.3353 53.7894 16.2163 53.8026 16.0973V13.062H56.0708Z" fill="#F8F8F8"/>
<path d="M106.633 10.4235C106.633 13.3266 104.477 15.5948 100.9 15.5948H98.109V21.1033H95.8408V5.23236H100.9C104.477 5.23236 106.633 7.52043 106.633 10.4235ZM104.299 10.4235C104.299 8.56526 103.029 7.29559 100.9 7.29559H98.109V13.5316H100.9C103.029 13.5316 104.299 12.2817 104.299 10.4235Z" fill="#F8F8F8"/>
<path d="M108.425 6.3895C108.425 5.75466 108.948 5.2124 109.602 5.2124C110.257 5.2124 110.779 5.75466 110.779 6.3895C110.779 7.04418 110.257 7.5666 109.602 7.5666C108.948 7.5666 108.425 7.04418 108.425 6.3895ZM108.564 9.60998H110.647V21.1032H108.564V9.60998Z" fill="#F8F8F8"/>
<path d="M121.83 17.5852L123.595 18.5374C122.55 20.237 120.738 21.3942 118.497 21.3942C115.025 21.3942 112.466 18.6763 112.466 15.3632C112.466 12.0502 115.025 9.33228 118.497 9.33228C120.738 9.33228 122.557 10.4895 123.595 12.1692L121.83 13.1413C121.148 12.0105 119.945 11.2831 118.497 11.2831C116.228 11.2831 114.575 13.009 114.575 15.3632C114.575 17.6976 116.228 19.4236 118.497 19.4236C119.945 19.4236 121.148 18.7226 121.83 17.5852Z" fill="#F8F8F8"/>
<path d="M134.526 21.1032H131.828L127.133 15.5947V21.1032H125.07V5.23224H127.133V14.735L131.306 9.60998H133.825L129.362 14.9863L134.526 21.1032Z" fill="#F8F8F8"/>
<path d="M146.205 16.2494H137.066C137.383 18.134 138.792 19.4236 141.033 19.4236C142.283 19.4236 143.414 18.9474 144.049 18.134L145.748 19.2252C144.73 20.6073 143.05 21.4008 141.033 21.4008C137.224 21.4008 134.864 18.6829 134.864 15.3698C134.864 12.0568 137.31 9.33888 140.69 9.33888C143.824 9.33227 146.747 11.9642 146.205 16.2494ZM144.122 14.4837C143.85 12.5329 142.647 11.2897 140.696 11.2897C138.725 11.2897 137.383 12.5792 137.066 14.4837H144.122Z" fill="#F8F8F8"/>
<path d="M153.981 9.33228V11.6666C150.582 11.2566 150.153 13.8423 150.153 15.9518V21.0966H148.089V9.61002H150.153V11.6071C150.926 10.0597 152.513 9.33228 153.981 9.33228Z" fill="#F8F8F8"/>
</svg>
